<svg xmlns="http://www.w3.org/2000/svg"
     viewBox="0 0 16 16"
     width="16"
     height="16"
     shape-rendering="crispEdges">
  <rect x="0" y="0" width="16" height="1" fill="#ffffff" />
  <rect x="0" y="1" width="10" height="1" fill="#ffffff" />
  <rect x="10" y="1" width="2" height="1" fill="#fefefe" />
  <rect x="12" y="1" width="4" height="1" fill="#ffffff" />
  <rect x="0" y="2" width="9" height="1" fill="#ffffff" />
  <rect x="9" y="2" width="1" height="1" fill="#cfcfcf" />
  <rect x="10" y="2" width="1" height="1" fill="#4b5132" />
  <rect x="11" y="2" width="1" height="1" fill="#000000" />
  <rect x="12" y="2" width="1" height="1" fill="#fbfcfc" />
  <rect x="13" y="2" width="3" height="1" fill="#ffffff" />
  <rect x="0" y="3" width="9" height="1" fill="#ffffff" />
  <rect x="9" y="3" width="1" height="1" fill="#deeca3" />
  <rect x="10" y="3" width="1" height="1" fill="#67aa24" />
  <rect x="11" y="3" width="1" height="1" fill="#30511b" />
  <rect x="12" y="3" width="1" height="1" fill="#fbfcfc" />
  <rect x="13" y="3" width="3" height="1" fill="#ffffff" />
  <rect x="0" y="4" width="5" height="1" fill="#ffffff" />
  <rect x="5" y="4" width="1" height="1" fill="#9f9a99" />
  <rect x="6" y="4" width="1" height="1" fill="#25150f" />
  <rect x="7" y="4" width="1" height="1" fill="#19120e" />
  <rect x="8" y="4" width="1" height="1" fill="#141d11" />
  <rect x="9" y="4" width="1" height="1" fill="#427012" />
  <rect x="10" y="4" width="1" height="1" fill="#417215" />
  <rect x="11" y="4" width="5" height="1" fill="#ffffff" />
  <rect x="0" y="5" width="4" height="1" fill="#ffffff" />
  <rect x="4" y="5" width="1" height="1" fill="#3d3d3d" />
  <rect x="5" y="5" width="1" height="1" fill="#e18144" />
  <rect x="6" y="5" width="1" height="1" fill="#fd914c" />
  <rect x="7" y="5" width="1" height="1" fill="#b3251a" />
  <rect x="8" y="5" width="1" height="1" fill="#141d11" />
  <rect x="9" y="5" width="1" height="1" fill="#c43720" />
  <rect x="10" y="5" width="1" height="1" fill="#9a161a" />
  <rect x="11" y="5" width="1" height="1" fill="#737373" />
  <rect x="12" y="5" width="4" height="1" fill="#ffffff" />
  <rect x="0" y="6" width="2" height="1" fill="#ffffff" />
  <rect x="2" y="6" width="1" height="1" fill="#fefefe" />
  <rect x="3" y="6" width="1" height="1" fill="#9f9a99" />
  <rect x="4" y="6" width="1" height="1" fill="#dc854e" />
  <rect x="5" y="6" width="1" height="1" fill="#f7a365" />
  <rect x="6" y="6" width="1" height="1" fill="#f3a88b" />
  <rect x="7" y="6" width="1" height="1" fill="#a71018" />
  <rect x="8" y="6" width="1" height="1" fill="#4b1814" />
  <rect x="9" y="6" width="1" height="1" fill="#eb3c21" />
  <rect x="10" y="6" width="1" height="1" fill="#c0181b" />
  <rect x="11" y="6" width="1" height="1" fill="#861516" />
  <rect x="12" y="6" width="1" height="1" fill="#b6b6b6" />
  <rect x="13" y="6" width="3" height="1" fill="#ffffff" />
  <rect x="0" y="7" width="2" height="1" fill="#ffffff" />
  <rect x="2" y="7" width="1" height="1" fill="#fefefe" />
  <rect x="3" y="7" width="1" height="1" fill="#301a17" />
  <rect x="4" y="7" width="1" height="1" fill="#fa9347" />
  <rect x="5" y="7" width="1" height="1" fill="#f5d3b6" />
  <rect x="6" y="7" width="1" height="1" fill="#bd1e1f" />
  <rect x="7" y="7" width="1" height="1" fill="#e23b21" />
  <rect x="8" y="7" width="2" height="1" fill="#ea3c1e" />
  <rect x="10" y="7" width="1" height="1" fill="#c4161d" />
  <rect x="11" y="7" width="1" height="1" fill="#c0121b" />
  <rect x="12" y="7" width="1" height="1" fill="#080100" />
  <rect x="13" y="7" width="3" height="1" fill="#ffffff" />
  <rect x="0" y="8" width="2" height="1" fill="#ffffff" />
  <rect x="2" y="8" width="1" height="1" fill="#fefefe" />
  <rect x="3" y="8" width="1" height="1" fill="#301a17" />
  <rect x="4" y="8" width="1" height="1" fill="#f7b182" />
  <rect x="5" y="8" width="5" height="1" fill="#ea3c1e" />
  <rect x="10" y="8" width="1" height="1" fill="#c4161d" />
  <rect x="11" y="8" width="1" height="1" fill="#c0121b" />
  <rect x="12" y="8" width="1" height="1" fill="#080100" />
  <rect x="13" y="8" width="3" height="1" fill="#ffffff" />
  <rect x="0" y="9" width="2" height="1" fill="#ffffff" />
  <rect x="2" y="9" width="1" height="1" fill="#fefefe" />
  <rect x="3" y="9" width="1" height="1" fill="#301a17" />
  <rect x="4" y="9" width="1" height="1" fill="#e74a23" />
  <rect x="5" y="9" width="1" height="1" fill="#f17b3b" />
  <rect x="6" y="9" width="4" height="1" fill="#ea3c1e" />
  <rect x="10" y="9" width="1" height="1" fill="#c3171a" />
  <rect x="11" y="9" width="1" height="1" fill="#c0121b" />
  <rect x="12" y="9" width="1" height="1" fill="#080100" />
  <rect x="13" y="9" width="3" height="1" fill="#ffffff" />
  <rect x="0" y="10" width="2" height="1" fill="#ffffff" />
  <rect x="2" y="10" width="1" height="1" fill="#fefefe" />
  <rect x="3" y="10" width="1" height="1" fill="#301a17" />
  <rect x="4" y="10" width="1" height="1" fill="#e74a23" />
  <rect x="5" y="10" width="5" height="1" fill="#ea3c1e" />
  <rect x="10" y="10" width="1" height="1" fill="#c0121b" />
  <rect x="11" y="10" width="1" height="1" fill="#c11219" />
  <rect x="12" y="10" width="1" height="1" fill="#080100" />
  <rect x="13" y="10" width="3" height="1" fill="#ffffff" />
  <rect x="0" y="11" width="2" height="1" fill="#ffffff" />
  <rect x="2" y="11" width="1" height="1" fill="#fefefe" />
  <rect x="3" y="11" width="1" height="1" fill="#301a17" />
  <rect x="4" y="11" width="1" height="1" fill="#e54d28" />
  <rect x="5" y="11" width="1" height="1" fill="#e93e1f" />
  <rect x="6" y="11" width="2" height="1" fill="#ea3c1e" />
  <rect x="8" y="11" width="1" height="1" fill="#e93e1f" />
  <rect x="9" y="11" width="1" height="1" fill="#c11219" />
  <rect x="10" y="11" width="1" height="1" fill="#c0121b" />
  <rect x="11" y="11" width="1" height="1" fill="#bd1518" />
  <rect x="12" y="11" width="1" height="1" fill="#080203" />
  <rect x="13" y="11" width="3" height="1" fill="#ffffff" />
  <rect x="0" y="12" width="3" height="1" fill="#ffffff" />
  <rect x="3" y="12" width="1" height="1" fill="#e7e7e7" />
  <rect x="4" y="12" width="1" height="1" fill="#19191a" />
  <rect x="5" y="12" width="1" height="1" fill="#c11219" />
  <rect x="6" y="12" width="1" height="1" fill="#d1241e" />
  <rect x="7" y="12" width="1" height="1" fill="#c91d1b" />
  <rect x="8" y="12" width="1" height="1" fill="#c11216" />
  <rect x="9" y="12" width="1" height="1" fill="#c1121c" />
  <rect x="10" y="12" width="1" height="1" fill="#c0121b" />
  <rect x="11" y="12" width="1" height="1" fill="#761214" />
  <rect x="12" y="12" width="1" height="1" fill="#fbfcfc" />
  <rect x="13" y="12" width="3" height="1" fill="#ffffff" />
  <rect x="0" y="13" width="5" height="1" fill="#ffffff" />
  <rect x="5" y="13" width="1" height="1" fill="#b1b0b2" />
  <rect x="6" y="13" width="2" height="1" fill="#0a0204" />
  <rect x="8" y="13" width="1" height="1" fill="#f6faf6" />
  <rect x="9" y="13" width="1" height="1" fill="#080203" />
  <rect x="10" y="13" width="1" height="1" fill="#0a0204" />
  <rect x="11" y="13" width="5" height="1" fill="#ffffff" />
  <rect x="0" y="14" width="5" height="1" fill="#ffffff" />
  <rect x="5" y="14" width="1" height="1" fill="#fefefe" />
  <rect x="6" y="14" width="2" height="1" fill="#ffffff" />
  <rect x="8" y="14" width="1" height="1" fill="#fefefe" />
  <rect x="9" y="14" width="7" height="1" fill="#ffffff" />
  <rect x="0" y="15" width="16" height="1" fill="#ffffff" />
</svg>